HIERARCHY
ROOT Hips
{
	OFFSET 0.000000 0.000000 0.000000 
	CHANNELS 6 Xposition Yposition Zposition Zrotation Yrotation Xrotation
	JOINT LeftUpLeg
	{
		OFFSET 1.363060 -1.794630 0.839290 
		CHANNELS 3 Zrotation Yrotation Xrotation
		JOINT LeftLeg
		{
			OFFSET 2.448110 -6.726130 0.000000 
			CHANNELS 3 Zrotation Yrotation Xrotation
			JOINT LeftFoot
			{
				OFFSET 2.562200 -7.039590 0.000000 
				CHANNELS 3 Zrotation Yrotation Xrotation
				JOINT LeftToeBase
				{
					OFFSET 0.157640 -0.433110 2.322550 
					CHANNELS 3 Zrotation Yrotation Xrotation
					End Site
					{
						OFFSET 0.000000 0.000000 0.000000 
					}
				}
			}
		}
	}
	JOINT RightUpLeg
	{
		OFFSET -1.305520 -1.794630 0.839290 
		CHANNELS 3 Zrotation Yrotation Xrotation
		JOINT RightLeg
		{
			OFFSET -2.542530 -6.985550 0.000000 
			CHANNELS 3 Zrotation Yrotation Xrotation
			JOINT RightFoot
			{
				OFFSET -2.568260 -7.056230 0.000000 
				CHANNELS 3 Zrotation Yrotation Xrotation
				JOINT RightToeBase
				{
					OFFSET -0.164730 -0.452590 2.363150 
					CHANNELS 3 Zrotation Yrotation Xrotation
					End Site
					{
						OFFSET 0.000000 0.000000 0.000000 
					}
				}
			}
		}
	}
	JOINT Spine
	{
		OFFSET 0.028270 2.035590 -0.193380 
		CHANNELS 3 Zrotation Yrotation Xrotation
		JOINT Spine1
		{
			OFFSET 0.056720 2.048850 -0.042750 
			CHANNELS 3 Zrotation Yrotation Xrotation
			JOINT Neck1
			{
				OFFSET -0.054170 1.746240 0.172020 
				CHANNELS 3 Zrotation Yrotation Xrotation
				JOINT Head
				{
					OFFSET 0.104070 1.761360 -0.123970 
					CHANNELS 3 Zrotation Yrotation Xrotation
					End Site
					{
						OFFSET 0.000000 0.000000 0.000000 
					}
				}
			}
			JOINT LeftArm
			{
				OFFSET 3.362410 1.200890 -0.311210 
				CHANNELS 3 Zrotation Yrotation Xrotation
				JOINT LeftForeArm
				{
					OFFSET 4.983000 -0.000000 -0.000000 
					CHANNELS 3 Zrotation Yrotation Xrotation
					JOINT LeftHand
					{
						OFFSET 3.483560 -0.000000 -0.000000 
						CHANNELS 3 Zrotation Yrotation Xrotation
						JOINT LeftHandIndex1
						{
							OFFSET 0.715260 -0.000000 -0.000000 
							CHANNELS 3 Zrotation Yrotation Xrotation
							End Site
							{
								OFFSET 0.000000 0.000000 0.000000 
							}
						}
					}
				}
			}
			JOINT RightArm
			{
				OFFSET -3.136600 1.374050 -0.404650 
				CHANNELS 3 Zrotation Yrotation Xrotation
				JOINT RightForeArm
				{
					OFFSET -5.241900 -0.000000 -0.000000 
					CHANNELS 3 Zrotation Yrotation Xrotation
					JOINT RightHand
					{
						OFFSET -3.444170 -0.000000 -0.000000 
						CHANNELS 3 Zrotation Yrotation Xrotation
						JOINT RightHandIndex1
						{
							OFFSET -0.622530 -0.000000 -0.000000 
							CHANNELS 3 Zrotation Yrotation Xrotation
							End Site
							{
								OFFSET 0.000000 0.000000 0.000000 
							}
						}
					}
				}
			}
		}
	}
}
MOTION
Frames: 15
Frame Time: 0.041667
-12.847017 17.801553 -12.128515 5.880291 1.975906 1.236207 -23.306939 -3.190499 12.073947 -1.857452 -0.309506 2.205120 1.135379 -10.106789 6.682407 0.011300 -0.686900 -1.887700 7.573204 6.944453 -29.002438 0.168290 -6.872888 17.979855 1.030754 -7.186239 6.729919 -0.159400 2.572500 -7.090700 0.898509 -2.284490 0.344798 3.305293 -1.580112 -2.864852 6.724597 -4.923125 15.855729 4.632700 -2.703200 13.662700 -80.408062 -10.480355 32.562768 16.199136 -22.621268 -4.202108 -1.571563 -2.674052 6.303314 -7.125000 0.000000 0.000000 84.111805 -6.054728 8.186723 -16.527743 24.784453 -4.101258 0.448484 -0.276747 3.955085 7.125000 0.000000 0.000000 
-12.865256 17.781997 -11.980478 5.893230 2.133067 1.309772 -23.234593 -3.240579 12.610406 -1.845965 -0.309454 2.216938 1.150564 -10.338123 6.414383 0.069300 -1.697900 -4.671600 7.537351 7.191468 -29.110160 0.216295 -6.770079 17.705039 0.947093 -6.718474 5.943487 -0.220200 3.020900 -8.337100 0.915140 -2.328950 0.365713 3.389116 -1.615614 -2.810117 6.875116 -5.036280 15.880716 4.696200 -2.734400 13.738200 -80.475640 -10.670080 32.792938 16.253349 -22.675717 -4.226288 -1.613060 -2.558984 6.395981 -7.125000 0.000000 0.000000 84.132424 -6.036595 7.506476 -16.332606 24.533543 -4.010358 0.438885 -0.302600 4.286430 7.125000 0.000000 0.000000 
-12.885318 17.769230 -11.831630 5.907061 2.282759 1.396000 -23.151769 -3.317697 13.060426 -1.837585 -0.312360 2.221026 1.158572 -10.518715 6.445844 0.103200 -2.071400 -5.703000 7.521159 7.448201 -29.178845 0.233349 -6.743619 17.633824 0.956860 -6.603282 5.079505 -0.137100 2.386200 -6.574200 0.937903 -2.405609 0.350875 3.504994 -1.660156 -2.841664 6.999157 -5.079116 16.008324 4.756900 -2.739300 13.866500 -80.547960 -10.745316 32.938070 16.287863 -22.713617 -4.244526 -1.584009 -2.592700 6.545074 -7.125000 0.000000 0.000000 84.156507 -6.168478 7.019062 -16.224497 24.390828 -3.959390 0.433776 -0.310442 4.711079 7.125000 0.000000 0.000000 
-12.904165 17.760313 -11.681769 6.013072 2.437288 1.516806 -23.163555 -3.418080 13.467405 -1.830360 -0.320970 2.215169 1.158950 -10.693512 6.780048 0.118900 -2.223500 -6.123700 7.618544 7.210986 -29.414833 0.232279 -6.764058 17.667598 0.986472 -6.677568 4.806552 -0.112100 2.158900 -5.945100 0.956694 -2.521963 0.325869 3.657769 -1.721330 -2.863769 6.938726 -5.054184 15.937862 4.718300 -2.730900 13.822800 -80.626447 -10.841452 33.031424 16.292051 -22.715909 -4.248892 -1.540744 -2.696181 6.647897 -7.125000 0.000000 0.000000 84.103881 -6.155374 6.462682 -15.986735 24.071672 -3.848285 0.423981 -0.320268 5.260853 7.125000 0.000000 0.000000 
-12.921492 17.753626 -11.530793 6.179763 2.557082 1.664791 -23.260816 -3.488964 13.847516 -1.824781 -0.336157 2.198589 1.140309 -10.693028 7.522347 0.135100 -2.369100 -6.526800 7.916026 6.411328 -29.877104 0.212944 -6.832345 17.826597 0.939335 -6.611508 5.378399 -0.220900 3.025400 -8.349400 0.944705 -2.591235 0.318010 3.748968 -1.762962 -2.824664 7.047355 -5.121406 15.875860 4.766900 -2.748700 13.815400 -80.649107 -10.957177 33.262850 16.308461 -22.730365 -4.256834 -1.553738 -2.646141 6.586560 -7.125000 0.000000 0.000000 84.101446 -6.114578 5.835149 -15.758103 23.770299 -3.743613 0.417450 -0.348117 5.515172 7.125000 0.000000 0.000000 
-12.941048 17.747951 -11.375764 6.370174 2.616295 1.772072 -23.380744 -3.480903 14.269421 -1.812744 -0.344811 2.196672 1.143182 -10.929325 7.688245 0.185000 -2.770300 -7.639800 8.155078 5.835799 -30.200858 0.173618 -6.945315 18.109573 0.944569 -6.762354 6.042052 -0.352400 3.814000 -10.553900 0.915376 -2.577157 0.351415 3.812059 -1.768700 -2.699774 7.173903 -5.254010 15.874999 4.802500 -2.782200 13.879600 -80.691619 -11.120240 33.567145 16.340830 -22.764655 -4.272660 -1.592067 -2.583410 6.581587 -7.125000 0.000000 0.000000 84.220480 -6.152474 5.354657 -15.648856 23.625389 -3.691576 0.426258 -0.372199 5.185786 7.125000 0.000000 0.000000 
-12.962529 17.743493 -11.220026 6.431722 2.623734 1.769298 -23.355071 -3.404543 14.709293 -1.799292 -0.354989 2.196327 1.142810 -11.142305 8.116013 0.168800 -2.647100 -7.297800 8.431056 5.662921 -30.267097 0.114036 -7.102040 18.525064 1.061949 -7.279239 6.413479 -0.396800 4.044400 -11.201600 0.916304 -2.553543 0.360524 3.878526 -1.758858 -2.733832 7.121759 -5.275815 15.986329 4.751400 -2.783700 13.976300 -80.771444 -11.147733 33.762494 16.359281 -22.781488 -4.281653 -1.600063 -2.551309 6.751365 -7.125000 0.000000 0.000000 84.297393 -6.299906 4.993144 -15.583178 23.517537 -3.655204 0.438026 -0.333747 5.068435 7.125000 0.000000 0.000000 
-12.982591 17.739845 -11.061856 6.475266 2.699356 1.763906 -23.320153 -3.395958 15.180479 -1.789688 -0.365950 2.189661 1.132853 -11.189886 8.710807 0.164800 -2.615400 -7.209700 8.736165 5.382060 -30.317004 0.046427 -7.282083 19.022659 1.147358 -7.597846 6.401511 -0.340000 3.747200 -10.366400 0.943806 -2.604935 0.327337 3.988302 -1.779046 -2.902349 7.155305 -5.228604 15.978880 4.779400 -2.764600 13.976900 -80.950862 -10.965882 33.768560 16.403993 -22.836082 -4.303914 -1.602646 -2.525846 6.950375 -7.125000 0.000000 0.000000 84.185229 -6.771273 5.094502 -15.731706 23.693167 -3.717068 0.443732 -0.214628 4.877765 7.125000 0.000000 0.000000 
-13.002654 17.737819 -10.897404 6.549612 2.860010 1.747027 -23.332635 -3.417111 15.788627 -1.779253 -0.375001 2.183123 1.118427 -11.149314 9.161182 0.210000 -2.950700 -8.141500 9.029155 4.954942 -30.264540 -0.016295 -7.453058 19.508284 1.188552 -7.684025 6.069814 -0.261700 3.291400 -9.091000 0.960094 -2.722258 0.314014 4.079369 -1.836664 -2.983573 7.252853 -5.178094 15.874797 4.837200 -2.735300 13.910100 -81.077703 -10.749206 33.713157 16.468952 -22.926802 -4.339058 -1.571113 -2.541777 6.990613 -7.125000 0.000000 0.000000 84.086048 -7.101327 5.032290 -15.823738 23.810835 -3.760432 0.427534 -0.129919 4.829812 7.125000 0.000000 0.000000 
-13.026364 17.732955 -10.724542 6.606498 3.049205 1.748411 -23.308588 -3.482634 16.410368 -1.769247 -0.382921 2.176474 1.110157 -11.179525 9.606425 0.224300 -3.048400 -8.413400 9.275800 4.722627 -30.098461 -0.080312 -7.622108 19.992918 1.257611 -7.844744 5.583838 -0.247500 3.201000 -8.838800 0.958321 -2.813836 0.324534 4.138737 -1.887222 -2.944384 7.304807 -5.184448 15.878967 4.846300 -2.722200 13.924200 -81.107090 -10.616217 33.814640 16.463090 -22.928125 -4.338448 -1.565834 -2.546463 7.014823 -7.125000 0.000000 0.000000 84.255078 -6.950015 4.194746 -15.576558 23.471460 -3.646298 0.415856 -0.137757 5.379716 7.125000 0.000000 0.000000 
-13.049973 17.727382 -10.548539 6.615113 3.237737 1.787900 -23.215651 -3.576479 16.977213 -1.761833 -0.391172 2.167019 1.104920 -11.197334 10.233857 0.249700 -3.215500 -8.879400 9.496745 4.696948 -29.897341 -0.150330 -7.796306 20.503835 1.308376 -7.961283 5.219805 -0.264400 3.308100 -9.137800 0.989093 -2.895111 0.339245 4.248153 -1.937321 -2.851829 7.258206 -5.193046 15.942478 4.820900 -2.729300 13.985600 -81.215845 -10.516588 33.970601 16.463800 -22.936312 -4.341198 -1.569106 -2.571278 7.043557 -7.125000 0.000000 0.000000 84.272708 -6.890159 3.776087 -15.303020 23.087232 -3.514580 0.444693 -0.170444 5.618121 7.125000 0.000000 0.000000 
-13.074393 17.730929 -10.369294 6.653529 3.394188 1.883630 -23.151979 -3.661137 17.481613 -1.755694 -0.400749 2.154812 1.101189 -11.193681 10.951656 0.385500 -3.987200 -11.040700 9.655261 4.719801 -29.744260 -0.227484 -7.973312 21.029595 1.267564 -7.855470 5.499554 -0.250400 3.219700 -8.891100 1.023294 -2.989120 0.345668 4.374715 -1.995178 -2.713987 7.197144 -5.178524 16.032491 4.789300 -2.728100 14.048700 -81.362458 -10.289961 33.998833 16.496252 -22.995796 -4.361541 -1.575408 -2.596503 6.994219 -7.125000 0.000000 0.000000 84.204702 -7.228796 3.945212 -15.310330 23.101834 -3.516240 0.461181 -0.174036 5.345079 7.125000 0.000000 0.000000 
-13.100130 17.744810 -10.184678 6.593182 3.671487 1.968354 -22.968272 -3.875182 18.017632 -1.753301 -0.406381 2.141881 1.105638 -11.212564 11.682801 0.601200 -4.963600 -13.804700 9.885388 4.686796 -29.554301 -0.305221 -8.135270 21.507108 1.205519 -7.823805 6.538320 -0.190300 2.809600 -7.749100 1.072974 -3.097900 0.350835 4.480978 -2.060746 -2.597932 7.211917 -5.167350 16.070536 4.800200 -2.722700 14.082500 -81.535099 -10.050522 33.930315 16.483865 -22.988625 -4.355910 -1.581183 -2.579661 7.039506 -7.125000 0.000000 0.000000 84.210865 -7.456890 3.787868 -15.323822 23.124881 -3.522875 0.459790 -0.162447 5.263464 7.125000 0.000000 0.000000 
-13.126272 17.768217 -9.996921 6.475266 4.057516 2.073189 -22.701234 -4.231373 18.514317 -1.758460 -0.410923 2.120201 1.116488 -11.104674 12.714311 0.579100 -4.873100 -13.546900 10.094209 4.698355 -29.364241 -0.385218 -8.287902 21.948117 1.132925 -7.906903 8.123487 -0.133500 2.355000 -6.487700 1.126817 -3.242742 0.319159 4.562765 -2.135172 -2.583820 7.218510 -5.164786 16.019589 4.799500 -2.722100 14.028000 -81.702532 -9.687697 33.882356 16.488535 -23.006958 -4.360355 -1.570846 -2.547596 7.092036 -7.125000 0.000000 0.000000 84.284049 -7.560323 3.260342 -15.188227 22.934931 -3.459694 0.462222 -0.161814 5.599249 7.125000 0.000000 0.000000 
-13.152515 17.794967 -9.809265 6.245830 4.318919 2.204027 -22.298244 -4.509619 18.853064 -1.763842 -0.420227 2.097055 1.152514 -11.150578 14.220274 0.318500 -3.627600 -10.031200 10.329315 4.986223 -29.162635 -0.458526 -8.417845 22.337309 1.022061 -7.954031 9.925543 -0.113900 2.176000 -5.992400 1.211373 -3.371118 0.228747 4.651247 -2.188955 -2.723916 7.115953 -5.077706 16.040458 4.754500 -2.700300 13.985700 -81.922305 -9.170624 33.775641 16.463212 -22.988756 -4.349136 -1.578236 -2.531151 7.152718 -7.125000 0.000000 0.000000 84.298739 -7.827771 2.890550 -15.065388 22.759599 -3.401714 0.469302 -0.169718 5.774428 7.125000 0.000000 0.000000 
